<svg width="515" height="120" viewBox="0 0 515 120" fill="none" xmlns="http://www.w3.org/2000/svg">
<path d="M120 60.3216C120 60.9299 119.991 61.5382 119.974 62.1466H119.904H90.7908V60.8169H62.7028C62.7028 60.5388 62.7115 60.2607 62.7115 59.9913C62.7115 59.7219 62.7115 59.4351 62.7028 59.1657H90.7908V57.8447H90.8343H119.948C119.983 58.6703 120 59.4959 120 60.3216ZM62.2074 54.3337L89.6958 50.9531L89.8609 52.274L118.888 48.7022C118.609 47.2769 118.279 45.8691 117.906 44.4873L89.3308 48.007L89.4959 49.3279L61.8772 52.7259C61.9988 53.2648 62.1118 53.8036 62.2074 54.3511V54.3337ZM60.7735 49.0151L87.0452 42.4536L87.3667 43.7399L115.246 36.7787C114.673 35.4316 114.056 34.102 113.395 32.8071L86.3326 39.5684L86.6541 40.8546L60.1651 47.4768C60.3824 47.9896 60.5823 48.5023 60.7735 49.0238V49.0151ZM58.4444 44.0353L83.0041 34.7625L83.4734 36.0052L109.458 26.1935C108.615 24.9594 107.729 23.7601 106.79 22.5956L81.9525 31.9728L82.4218 33.2155L57.5666 42.6014C57.8708 43.0707 58.1663 43.5487 58.4444 44.0353ZM55.2202 39.4293L76.9119 28.1228L77.5203 29.3047L101.506 16.799C100.403 15.73 99.2555 14.7132 98.0736 13.7312L75.5301 25.4809L76.1385 26.6628L54.0817 38.1605C54.4641 38.5776 54.8465 38.9948 55.2115 39.4293H55.2202ZM49.9884 34.4583L69.6292 21.9699L70.3418 23.091L92.0162 9.30765C90.6518 8.43859 89.2613 7.63036 87.8273 6.87428L68.0388 19.4583L68.7514 20.5794L48.5458 33.4241C49.0411 33.7543 49.5191 34.102 49.9971 34.4583H49.9884ZM45.3476 31.5556L61.8077 18.0591L62.6506 19.0846L81.1877 3.87601C79.6147 3.27636 77.9983 2.73754 76.3644 2.26825L59.9218 15.7561L60.7648 16.7816L43.7051 30.7735C44.2613 31.0168 44.8088 31.2775 45.3476 31.5556ZM39.2034 29.1657L52.2045 16.2254L53.1344 17.164L69.6553 0.747393C67.865 0.451912 66.0487 0.234647 64.2063 0.0955967L50.1188 14.1136L51.0487 15.0521L37.3175 28.7138C37.9519 28.8441 38.5776 28.9919 39.2034 29.1657ZM32.0162 28.0794L42.3841 15.5127L43.4096 16.3557L56.9061 0C54.8552 0.0955967 52.8302 0.295481 50.8401 0.590962L40.0898 13.6182L41.1153 14.4612L29.887 28.0707C30.1999 28.062 30.5214 28.0533 30.8343 28.0533C31.2341 28.0533 31.6251 28.0533 32.0162 28.0707V28.0794ZM25.8024 28.4531L33.7891 16.095L34.9015 16.8163L44.5568 1.86848C42.3494 2.44206 40.1941 3.13731 38.091 3.94554L31.2949 14.4699L32.4073 15.1912L23.5603 28.8876C24.299 28.7138 25.0463 28.566 25.8024 28.4444V28.4531ZM18.9021 30.3737L24.6466 19.606L25.8111 20.2318L33.4154 5.98783C30.9733 7.17845 28.6269 8.52549 26.3847 10.0203L22.0133 18.2068L23.1866 18.8326L16.4253 31.5035C17.2248 31.095 18.0504 30.7213 18.8934 30.3824L18.9021 30.3737ZM13.9484 32.9027L16.3905 25.9676L17.6419 26.4108L22.387 12.9403C19.9797 14.8523 17.7202 16.938 15.6257 19.1889L13.5834 24.9855L14.8349 25.4287L11.6367 34.5017C12.3841 33.9368 13.1489 33.4067 13.9397 32.9114L13.9484 32.9027ZM7.85631 37.865L8.93395 32.8244L10.2289 33.1025L12.4015 22.9519C10.1159 25.8546 8.09096 28.9745 6.36153 32.2682L7.32619 32.4768L5.34473 40.8198C6.11819 39.7856 6.96118 38.7949 7.85631 37.865ZM3.38065 43.7572V37.0828C1.76419 41.3499 0.617034 46.6599 0 51.8656C0.756083 48.9803 1.90324 46.2601 3.38065 43.7572ZM0.0434531 68.2908C0.677868 72.7318 1.79027 77.0162 3.3372 81.0921V76.1645C1.91193 73.7312 0.790846 71.0892 0.0434531 68.2908ZM5.5533 79.4583L7.28273 87.5232L6.31808 87.7317C8.04751 91.0342 10.0724 94.1454 12.3581 97.0481L10.1854 86.8974L8.8905 87.1755L7.79548 82.0742C7.00463 81.2399 6.24855 80.3708 5.5533 79.4496V79.4583ZM11.5759 85.4548L14.7914 94.5799L13.54 95.0232L15.5823 100.82C17.6767 103.071 19.9363 105.156 22.3436 107.068L17.5985 93.5979L16.347 94.0411L13.8963 87.0713C13.1054 86.5672 12.332 86.0371 11.5846 85.4722L11.5759 85.4548ZM16.3731 88.4705L23.1518 101.176L21.9786 101.802L26.3499 109.988C28.5921 111.483 30.9386 112.83 33.3806 114.021L25.7764 99.7769L24.6031 100.403L18.8413 89.6089C17.9983 89.27 17.1727 88.8876 16.3644 88.4791L16.3731 88.4705ZM23.5081 91.095L32.3638 104.809L31.2514 105.53L38.0475 116.054C40.1506 116.863 42.3059 117.558 44.5133 118.132L34.8581 103.184L33.7457 103.905L25.7503 91.5295C24.9942 91.4079 24.2381 91.2601 23.4994 91.0863L23.5081 91.095ZM29.8349 91.9293L41.0631 105.539L40.0377 106.382L50.7879 119.409C52.7781 119.705 54.803 119.904 56.854 120L43.3575 103.636L42.332 104.479L31.9641 91.9119C31.5904 91.9293 31.208 91.9293 30.8256 91.9293C30.4954 91.9293 30.1564 91.9293 29.8262 91.9119L29.8349 91.9293ZM37.2827 91.2862L51.0052 104.939L50.0753 105.878L64.1628 119.896C66.0052 119.757 67.8215 119.539 69.6118 119.244L53.0996 102.819L52.1611 103.766L39.1686 90.8343C38.5516 90.9994 37.9171 91.1558 37.2827 91.2862ZM43.679 89.2439L60.7213 103.227L59.8783 104.253L76.321 117.74C77.9548 117.271 79.5713 116.732 81.1443 116.133L62.5985 100.924L61.7555 101.95L45.3129 88.4618C44.774 88.7399 44.2265 89.0006 43.6703 89.2439H43.679ZM48.511 86.5846L68.6906 99.4206L67.978 100.542L87.7665 113.126C89.2005 112.37 90.5996 111.553 91.9554 110.692L70.281 96.909L69.5684 98.0301L49.9536 85.5591C49.4757 85.9154 48.9977 86.263 48.5023 86.5933L48.511 86.5846ZM54.073 81.8569L76.1037 93.3372L75.4954 94.5191L98.0388 106.269C99.2207 105.287 100.368 104.27 101.472 103.201L77.4855 90.6952L76.8772 91.8772L55.2115 80.5881C54.8465 81.0226 54.4728 81.4484 54.0817 81.8569H54.073ZM57.5579 77.4073L82.3783 86.7845L81.909 88.0272L106.747 97.4044C107.677 96.2399 108.563 95.0406 109.415 93.8065L83.4299 83.9948L82.9606 85.2375L58.4357 75.9733C58.1576 76.46 57.8621 76.938 57.5579 77.4073ZM60.1564 72.5406L86.602 79.1454L86.2804 80.4316L113.343 87.1929C114.012 85.898 114.629 84.5684 115.203 83.2213L87.3233 76.2601L87.0017 77.5463L60.7648 70.9936C60.5736 71.5151 60.365 72.0278 60.1564 72.5406ZM61.8772 67.2914L89.4525 70.6808L89.2874 72.0017L117.862 75.5214C118.236 74.1309 118.566 72.7231 118.844 71.3065L89.8175 67.7346L89.6524 69.0556L62.2074 65.675C62.1118 66.2225 61.9988 66.7613 61.8772 67.3001V67.2914Z" fill="white"/>
<path d="M157.751 100.051H148.136V19.9308H186.022C202.733 19.9308 211.66 30.5753 211.66 43.3945C211.66 59.6475 200.214 68.3462 186.022 68.3462H157.751V100.051ZM157.751 28.744V59.533H186.48C196.437 59.533 201.817 52.3222 201.817 43.3945C201.817 33.8946 194.949 28.744 186.48 28.744H157.751Z" fill="white"/>
<path d="M231.887 100.051H222.387V19.9307H231.887V100.051Z" fill="white"/>
<path d="M266.18 100.967C252.445 100.967 243.632 93.8702 243.632 82.7678C243.632 68.804 257.138 66.1715 269.27 64.9125C278.541 63.9968 286.553 64.1113 286.668 59.1896C286.553 51.521 280.258 46.1415 271.101 46.1415C262.288 46.1415 255.421 51.0632 254.391 58.274H245.005C246.15 46.3704 256.909 38.015 271.33 38.015C286.324 38.015 295.939 46.9427 295.939 59.7619V89.2919C295.939 91.2376 295.939 92.2678 295.939 92.2678V100.051C289.415 100.051 292.071 100.051 287.125 100.051V89.6352C283.577 96.6171 276.71 100.967 266.18 100.967ZM267.553 92.84C278.885 92.84 286.668 85.6292 286.668 75.557V67.6595C284.035 71.2076 277.282 71.8944 269.842 72.6956C261.487 73.6112 253.132 74.7558 253.132 82.5389C253.132 88.834 258.855 92.84 267.553 92.84Z" fill="white"/>
<path d="M331.182 101.31C316.761 101.31 306.116 93.7557 305.315 80.9365H314.586C315.273 88.8341 322.484 93.1834 331.64 93.1834C340.224 93.1834 344.345 89.8642 344.345 83.7979C344.345 78.0751 339.881 76.816 333.586 74.6414L324.773 71.6655C315.845 68.6896 306.917 65.9426 306.917 54.9547C306.917 44.6536 314.929 38.015 328.206 38.015C341.598 38.015 350.869 45.2259 352.357 58.7318H343.086C342.056 50.262 336.104 46.1415 327.863 46.1415C320.423 46.1415 316.074 49.4608 316.074 54.7258C316.074 61.0209 322.713 62.28 327.749 63.9968L335.99 66.7438C347.092 70.4064 353.73 74.1835 353.73 84.2558C353.73 94.9003 345.947 101.31 331.182 101.31Z" fill="white"/>
<path d="M373.079 100.051H363.579V39.3885H371.133L372.048 48.774C376.169 42.25 384.066 38.015 392.765 38.015C401.922 38.015 408.789 42.7078 411.88 50.0331C415.771 42.9367 424.126 38.015 433.398 38.015C446.217 38.015 454.458 47.0572 454.458 59.4185V100.051H444.958V59.7619C444.958 51.6355 439.922 46.3704 431.795 46.3704C420.464 46.3704 413.825 53.9246 413.711 63.1956V100.051H404.325V59.7619C404.325 51.6355 399.289 46.3704 391.163 46.3704C379.832 46.3704 373.193 53.9246 373.079 63.1956V100.051Z" fill="white"/>
<path d="M485.147 100.967C471.412 100.967 462.599 93.8702 462.599 82.7678C462.599 68.804 476.105 66.1715 488.237 64.9125C497.508 63.9968 505.52 64.1113 505.635 59.1896C505.52 51.521 499.225 46.1415 490.068 46.1415C481.255 46.1415 474.388 51.0632 473.358 58.274H463.972C465.117 46.3704 475.876 38.015 490.297 38.015C505.291 38.015 514.906 46.9427 514.906 59.7619V89.2919C514.906 91.2376 514.906 92.2678 514.906 92.2678V100.051C508.382 100.051 511.038 100.051 506.092 100.051V89.6352C502.544 96.6171 495.677 100.967 485.147 100.967ZM486.52 92.84C497.852 92.84 505.635 85.6292 505.635 75.557V67.6595C503.002 71.2076 496.249 71.8944 488.809 72.6956C480.454 73.6112 472.099 74.7558 472.099 82.5389C472.099 88.834 477.822 92.84 486.52 92.84Z" fill="white"/>
</svg>
